<svg width="20" height="25" viewBox="0 0 20 25" fill="none" xmlns="http://www.w3.org/2000/svg">
<path d="M19.4876 19.0846C19.1311 19.9082 18.7091 20.6664 18.2202 21.3634C17.5537 22.3137 17.008 22.9714 16.5874 23.3367C15.9355 23.9362 15.237 24.2433 14.489 24.2607C13.9521 24.2607 13.3045 24.1079 12.5507 23.798C11.7944 23.4895 11.0994 23.3367 10.4639 23.3367C9.79745 23.3367 9.08266 23.4895 8.3181 23.798C7.55237 24.1079 6.93551 24.2695 6.46388 24.2855C5.74661 24.316 5.03167 24.0003 4.31803 23.3367C3.86256 22.9394 3.29285 22.2584 2.61035 21.2936C1.8781 20.2633 1.27608 19.0686 0.804449 17.7065C0.299348 16.2353 0.0461426 14.8107 0.0461426 13.4314C0.0461426 11.8515 0.387533 10.4889 1.07133 9.34697C1.60874 8.42975 2.32368 7.70623 3.21848 7.17508C4.11329 6.64393 5.08012 6.37326 6.12132 6.35594C6.69103 6.35594 7.43814 6.53217 8.36655 6.87851C9.29235 7.22601 9.8868 7.40223 10.1474 7.40223C10.3423 7.40223 11.0027 7.19618 12.1221 6.78538C13.1808 6.4044 14.0743 6.24666 14.8063 6.3088C16.7897 6.46887 18.2798 7.25075 19.2708 8.65938C17.4969 9.7342 16.6194 11.2396 16.6369 13.1708C16.6529 14.675 17.1986 15.9268 18.2711 16.9207C18.7571 17.382 19.2999 17.7385 19.9038 17.9917C19.7729 18.3715 19.6346 18.7353 19.4876 19.0846V19.0846ZM14.9387 1.18416C14.9387 2.36318 14.5079 3.46402 13.6494 4.48295C12.6133 5.69426 11.3601 6.39422 10.001 6.28377C9.98372 6.14232 9.97368 5.99345 9.97368 5.83702C9.97368 4.70516 10.4664 3.49385 11.3414 2.50344C11.7783 2.00198 12.3339 1.58502 13.0076 1.25241C13.6799 0.924753 14.3159 0.743554 14.9139 0.712524C14.9314 0.870141 14.9387 1.02777 14.9387 1.18414V1.18416Z" fill="black"/>
</svg>
