<svg width="24" height="24" viewBox="0 0 24 24" fill="none" xmlns="http://www.w3.org/2000/svg">
<path fill-rule="evenodd" clip-rule="evenodd" d="M23.3161 12.2679C23.3161 11.432 23.241 10.6284 23.1017 9.85681H12.0001V14.4164H18.3439C18.0706 15.8899 17.2401 17.1383 15.9917 17.9741V20.9317H19.8012C22.0302 18.8796 23.3161 15.8577 23.3161 12.2679Z" fill="#4285F4"/>
<path fill-rule="evenodd" clip-rule="evenodd" d="M11.9999 23.7874C15.1826 23.7874 17.8508 22.7319 19.8011 20.9316L15.9916 17.974C14.9361 18.6812 13.5859 19.0992 11.9999 19.0992C8.92982 19.0992 6.33121 17.0256 5.40428 14.2395H1.46619V17.2935C3.40577 21.1459 7.39208 23.7874 11.9999 23.7874Z" fill="#34A853"/>
<path fill-rule="evenodd" clip-rule="evenodd" d="M5.40438 14.2398C5.16863 13.5326 5.03468 12.7771 5.03468 12.0002C5.03468 11.2233 5.16863 10.4678 5.40438 9.76058V6.70654H1.46629C0.66795 8.29786 0.212524 10.0981 0.212524 12.0002C0.212524 13.9023 0.66795 15.7025 1.46629 17.2939L5.40438 14.2398Z" fill="#FBBC05"/>
<path fill-rule="evenodd" clip-rule="evenodd" d="M11.9999 4.90073C13.7305 4.90073 15.2844 5.49547 16.506 6.6635L19.8868 3.28263C17.8455 1.38056 15.1772 0.212524 11.9999 0.212524C7.39208 0.212524 3.40577 2.854 1.46619 6.70637L5.40428 9.7604C6.33121 6.97426 8.92982 4.90073 11.9999 4.90073Z" fill="#EA4335"/>
</svg>
