<svg width="29" height="24" viewBox="0 0 29 24" fill="none" xmlns="http://www.w3.org/2000/svg">
<path d="M9.12074 23.7875C20.0636 23.7875 26.0479 14.7185 26.0479 6.85407C26.0479 6.59652 26.0426 6.34014 26.031 6.08482C27.1954 5.24197 28.2004 4.19838 28.9987 3.00298C27.9326 3.47707 26.7855 3.79616 25.5822 3.94003C26.8105 3.20325 27.7534 2.03764 28.1983 0.648249C27.0305 1.34129 25.7529 1.82985 24.4206 2.09287C23.3349 0.936041 21.7894 0.212524 20.0779 0.212524C16.7925 0.212524 14.1283 2.8778 14.1283 6.16315C14.1283 6.63023 14.1806 7.0844 14.2827 7.52018C9.3381 7.27129 4.95363 4.90307 2.01931 1.30204C1.49081 2.21029 1.21282 3.24253 1.21375 4.29336C1.21375 6.35817 2.26401 8.18093 3.86122 9.24735C2.91645 9.21848 1.99243 8.9632 1.16683 8.50297C1.16595 8.52796 1.16595 8.5523 1.16595 8.579C1.16595 11.4612 3.21662 13.8677 5.93883 14.413C5.42756 14.5523 4.89999 14.6227 4.37009 14.6224C3.98741 14.6224 3.61445 14.5847 3.25198 14.5151C4.00939 16.8798 6.20564 18.6006 8.80955 18.6487C6.77332 20.2453 4.2083 21.1962 1.4205 21.1962C0.94626 21.1966 0.472407 21.1691 0.00140381 21.1138C2.63438 22.802 5.76078 23.7871 9.12104 23.7871" fill="#1D9BF0"/>
</svg>
